<svg width="0" height="0" class="hidden">
  <defs>  
    <symbol xmlns="http://www.w3.org/2000/svg" viewBox="0 0 12 14" id="account-icon">
      <path  fill-rule="evenodd" clip-rule="evenodd" d="M8 4a2 2 0 11-4 0 2 2 0 014 0zm2 0a4 4 0 11-8 0 4 4 0 018 0zM4 9a4 4 0 00-4 4v1h2v-1a2 2 0 012-2h4a2 2 0 012 2v1h2v-1a4 4 0 00-4-4H4z"></path>
    </symbol>

    <symbol xmlns="http://www.w3.org/2000/svg" viewBox="0 0 10 14" id="fav-icon">
      <path d="M0.5 1.9C0.5 1.40294 0.902944 1 1.4 1H8.6C9.09706 1 9.5 1.40294 9.5 1.9V12.4789C9.5 12.5552 9.41798 12.6034 9.35133 12.5662L6.21676 10.8198C5.46033 10.3984 4.53968 10.3984 3.78324 10.8198L0.648671 12.5662C0.582015 12.6034 0.5 12.5552 0.5 12.4789V1.9Z"/>
    </symbol>

    <symbol xmlns="http://www.w3.org/2000/svg" viewBox="0 0 8 8" id="close-icon">
      <path fill-rule="evenodd" clip-rule="evenodd" d="M4 4.94287L6.35705 7.29992L7.41771 6.23926L5.06066 3.88221L7.29992 1.64295L6.23926 0.582291L4 2.82155L1.76086 0.582406L0.700195 1.64307L2.93934 3.88221L0.582406 6.23914L1.64307 7.2998L4 4.94287Z"/>
    </symbol>
    <symbol xmlns="http://www.w3.org/2000/svg" viewBox="0 0 40 43" id="menu-icon">
      <path fill-rule="evenodd" clip-rule="evenodd" d="M31 15L9 15V12.5L31 12.5V15Z" />
      <path fill-rule="evenodd" clip-rule="evenodd" d="M31 24L9 24V21.5L31 21.5V24Z" />
      <path fill-rule="evenodd" clip-rule="evenodd" d="M31 33L9 33V30.5L31 30.5V33Z" />

    </symbol>
    

    


  </defs>
</svg>